# Blender 3.6.2
# www.blender.org
mtllib simplerElevator.mtl
o Cube
v 0.893397 0.063255 -0.893397
v 1.000000 -0.063255 -1.000000
v 0.893397 0.063255 0.893397
v 1.000000 -0.063255 1.000000
v -0.893397 0.063255 -0.893397
v -1.000000 -0.063255 -1.000000
v -0.893397 0.063255 0.893397
v -1.000000 -0.063255 1.000000
v 0.277110 -0.063255 -1.000000
v -0.277110 -0.063255 -1.000000
v 0.277110 0.063255 0.893397
v -0.277110 0.063255 0.893397
v -0.277110 -0.063255 1.000000
v 0.277110 -0.063255 1.000000
v -0.277110 0.063255 -0.893397
v 0.277110 0.063255 -0.893397
v -0.277110 0.063255 1.000000
v -1.000000 0.063255 1.000000
v 1.000000 0.063255 -1.000000
v 1.000000 0.063255 1.000000
v -1.000000 0.063255 -1.000000
v 0.277110 0.063255 -1.000000
v 0.277110 0.063255 1.000000
v -0.277110 0.063255 -1.000000
v -0.277110 0.900385 1.000000
v -1.000000 0.900385 1.000000
v 1.000000 0.900385 -1.000000
v 1.000000 0.900385 1.000000
v -1.000000 0.900385 -1.000000
v 0.277110 0.900385 -1.000000
v 0.277110 0.900385 1.000000
v -0.277110 0.900385 -1.000000
v -0.277110 0.900385 0.893397
v -0.893397 0.900385 0.893397
v 0.893397 0.900385 -0.893397
v 0.893397 0.900385 0.893397
v -0.893397 0.900385 -0.893397
v 0.277110 0.900385 -0.893397
v 0.277110 0.900385 0.893397
v -0.277110 0.900385 -0.893397
v -0.277110 1.070512 1.000000
v -1.000000 1.070512 1.000000
v 1.000000 1.070512 -1.000000
v 1.000000 1.070512 1.000000
v -1.000000 1.070512 -1.000000
v 0.277110 1.070512 -1.000000
v 0.277110 1.070512 1.000000
v -0.277110 1.070512 -1.000000
v -0.277110 1.070512 0.893397
v -0.893397 1.070512 0.893397
v 0.893397 1.070512 -0.893397
v 0.893397 1.070512 0.893397
v -0.893397 1.070512 -0.893397
v 0.277110 1.070512 -0.893397
v 0.277110 1.070512 0.893397
v -0.277110 1.070512 -0.893397
v -0.277110 1.153572 1.000000
v -1.000000 1.153572 1.000000
v 1.000000 1.153572 -1.000000
v 1.000000 1.153572 1.000000
v -1.000000 1.153572 -1.000000
v 0.277110 1.153572 -1.000000
v 0.277110 1.153572 1.000000
v -0.277110 1.153572 -1.000000
v -0.277110 1.153572 0.893397
v -0.893397 1.153572 0.893397
v 0.893397 1.153572 -0.893397
v 0.893397 1.153572 0.893397
v -0.893397 1.153572 -0.893397
v 0.277110 1.153572 -0.893397
v 0.277110 1.153572 0.893397
v -0.277110 1.153572 -0.893397
v -0.277110 1.216333 1.000000
v -1.000000 1.216333 1.000000
v 1.000000 1.216333 -1.000000
v 1.000000 1.216333 1.000000
v -1.000000 1.216333 -1.000000
v 0.277110 1.216333 -1.000000
v 0.277110 1.216333 1.000000
v -0.277110 1.216333 -1.000000
v -0.277110 1.216333 0.893397
v -0.893397 1.216333 0.893397
v 0.893397 1.216333 -0.893397
v 0.893397 1.216333 0.893397
v -0.893397 1.216333 -0.893397
v 0.277110 1.216333 -0.893397
v 0.277110 1.216333 0.893397
v -0.277110 1.216333 -0.893397
vn -0.0000 1.0000 -0.0000
vn -0.0000 -0.0000 1.0000
vn -1.0000 -0.0000 -0.0000
vn -0.0000 -1.0000 -0.0000
vn 1.0000 -0.0000 -0.0000
vn -0.0000 -0.0000 -1.0000
vt 0.791667 0.513325
vt 0.861675 0.513325
vt 0.861675 0.736675
vt 0.791667 0.736675
vt 0.375000 0.916667
vt 0.625000 0.916667
vt 0.625000 1.000000
vt 0.375000 1.000000
vt 0.375000 0.000000
vt 0.625000 0.000000
vt 0.625000 0.250000
vt 0.375000 0.250000
vt 0.291667 0.500000
vt 0.375000 0.500000
vt 0.375000 0.750000
vt 0.291667 0.750000
vt 0.625000 0.500000
vt 0.625000 0.750000
vt 0.375000 0.416667
vt 0.625000 0.416667
vt 0.625000 0.333333
vt 0.375000 0.333333
vt 0.125000 0.500000
vt 0.208333 0.500000
vt 0.208333 0.750000
vt 0.125000 0.750000
vt 0.625000 0.833333
vt 0.375000 0.833333
vt 0.638325 0.513325
vt 0.708333 0.513325
vt 0.708333 0.736675
vt 0.638325 0.736675
vt 0.791667 0.500000
vt 0.708333 0.500000
vt 0.000000 0.000000
vt 0.875000 0.750000
vt 0.791667 0.750000
vt 0.875000 0.500000
vt 0.708333 0.750000
s 0
usemtl Material
f 15/1/1 5/2/1 7/3/1 12/4/1
f 13/5/2 17/6/2 18/7/2 8/8/2
f 8/9/3 18/10/3 21/11/3 6/12/3
f 9/13/4 2/14/4 4/15/4 14/16/4
f 2/14/5 19/17/5 20/18/5 4/15/5
f 9/19/6 22/20/6 19/17/6 2/14/6
f 6/12/6 21/11/6 24/21/6 10/22/6
f 10/22/6 24/21/6 22/20/6 9/19/6
f 6/23/4 10/24/4 13/25/4 8/26/4
f 10/24/4 9/13/4 14/16/4 13/25/4
f 4/15/2 20/18/2 23/27/2 14/28/2
f 14/28/2 23/27/2 17/6/2 13/5/2
f 1/29/1 16/30/1 11/31/1 3/32/1
f 16/30/1 15/1/1 12/4/1 11/31/1
f 17/6/2 23/27/2 31/27/2 25/6/2
f 20/18/5 19/17/5 27/17/5 28/18/5
f 1/29/3 3/32/3 36/32/3 35/29/3
f 23/27/2 20/18/2 28/18/2 31/27/2
f 18/7/2 17/6/2 25/6/2 26/7/2
f 15/1/5 24/33/5 32/33/5 40/1/5
f 12/4/6 7/3/6 34/3/6 33/4/6
f 15/1/1 16/30/1 22/34/1 24/33/1
f 27/17/6 30/20/6 46/20/6 43/17/6
f 38/30/2 35/29/2 51/29/2 54/30/2
f 29/11/3 26/10/3 42/10/3 45/11/3
f 34/3/5 37/2/5 53/2/5 50/3/5
f 28/18/5 27/17/5 43/17/5 44/18/5
f 35/29/3 36/32/3 52/32/3 51/29/3
f 26/7/2 25/6/2 41/6/2 42/7/2
f 7/3/5 5/2/5 37/2/5 34/3/5
f 16/30/2 1/29/2 35/29/2 38/30/2
f 21/11/3 18/10/3 26/10/3 29/11/3
f 3/32/6 11/31/6 39/31/6 36/32/6
f 19/17/6 22/20/6 30/20/6 27/17/6
f 24/21/6 21/11/6 29/11/6 32/21/6
f 11/31/6 12/4/6 33/4/6 39/31/6
f 22/34/3 16/30/3 38/30/3 30/34/3
f 5/2/2 15/1/2 40/1/2 37/2/2
f 54/30/6 56/1/6 72/1/6 70/30/6
f 41/6/2 47/27/2 63/27/2 57/6/2
f 55/31/2 71/31/2 65/4/2 49/4/2
f 48/21/6 64/21/6 62/20/6 46/20/6
f 47/27/2 44/18/2 60/18/2 63/27/2
f 52/32/2 68/32/2 71/31/2 55/31/2
f 43/17/6 46/20/6 62/20/6 59/17/6
f 36/32/6 39/31/6 55/31/6 52/32/6
f 31/27/2 28/18/2 44/18/2 47/27/2
f 30/34/3 38/30/3 54/30/3 46/34/3
f 39/31/6 33/4/6 49/4/6 55/31/6
f 25/6/2 31/27/2 47/27/2 41/6/2
f 37/2/2 40/1/2 56/1/2 53/2/2
f 32/21/6 29/11/6 45/11/6 48/21/6
f 40/1/5 32/33/5 48/33/5 56/1/5
f 33/4/6 34/3/6 50/3/6 49/4/6
f 30/34/4 38/30/4 40/1/4 32/33/4
f 46/20/6 30/34/6 32/21/6 48/21/6
f 56/1/2 40/1/2 38/30/2 54/30/2
f 54/30/6 70/30/6 67/29/6 51/29/6
f 67/29/3 68/32/3 84/32/3 83/29/3
f 58/7/2 57/6/2 73/6/2 74/7/2
f 62/20/6 64/21/6 80/21/6 78/20/6
f 65/4/6 66/3/6 82/3/6 81/4/6
f 64/21/6 61/11/6 77/11/6 80/21/6
f 69/2/2 72/1/2 88/1/2 85/2/2
f 57/6/2 63/27/2 79/27/2 73/6/2
f 71/31/6 65/4/6 81/4/6 87/31/6
f 53/2/6 69/2/6 72/1/6 56/1/6
f 48/21/6 45/11/6 61/11/6 64/21/6
f 49/4/2 65/4/2 66/3/2 50/3/2
f 42/7/2 41/6/2 57/6/2 58/7/2
f 51/29/5 67/29/5 68/32/5 52/32/5
f 44/18/5 43/17/5 59/17/5 60/18/5
f 50/3/3 66/3/3 69/2/3 53/2/3
f 45/11/3 42/10/3 58/10/3 61/11/3
f 51/35/4 52/35/4 55/35/4 54/35/4
f 55/35/4 49/35/4 56/35/4 54/35/4
f 49/35/4 50/35/4 53/35/4 56/35/4
f 67/29/1 70/30/1 71/31/1 68/32/1
f 71/31/1 70/30/1 72/1/1 65/4/1
f 72/1/1 69/2/1 66/3/1 65/4/1
f 81/4/1 82/3/1 74/36/1 73/37/1
f 83/29/1 84/32/1 76/18/1 75/17/1
f 82/3/1 85/2/1 77/38/1 74/36/1
f 86/30/1 83/29/1 75/17/1 78/34/1
f 84/32/1 87/31/1 79/39/1 76/18/1
f 87/31/1 81/4/1 73/37/1 79/39/1
f 85/2/1 88/1/1 80/33/1 77/38/1
f 80/21/1 88/1/1 86/30/1 78/20/1
f 72/1/2 70/30/2 86/30/2 88/1/2
f 60/18/5 59/17/5 75/17/5 76/18/5
f 66/3/5 69/2/5 85/2/5 82/3/5
f 61/11/3 58/10/3 74/10/3 77/11/3
f 70/30/2 67/29/2 83/29/2 86/30/2
f 59/17/6 62/20/6 78/20/6 75/17/6
f 68/32/6 71/31/6 87/31/6 84/32/6
f 63/27/2 60/18/2 76/18/2 79/27/2
